<svg width="110" height="110" viewBox="0 0 110 110" fill="none" xmlns="http://www.w3.org/2000/svg">
<rect width="110" height="110" rx="31.625" fill="url(#paint0_linear_2624_5342)"/>
<path d="M41.6681 78.9402L58.1631 88.4636C62.6822 91.0727 68.3283 87.8103 68.3283 82.596V38.757L51.8333 29.2336C47.3141 26.6245 41.6681 29.8869 41.6681 35.1012V78.9402Z" fill="#107569"/>
<path opacity="0.7" d="M28.3398 61.8455L44.8348 71.3689C49.354 73.978 55 70.7157 55 65.5013V46.4545L38.505 36.9311C33.9859 34.322 28.3398 37.5844 28.3398 42.7987L28.3398 61.8455Z" fill="#109383"/>
<path opacity="0.7" d="M55 46.4508L71.495 55.9742C76.0141 58.5833 81.6602 55.3209 81.6602 50.1066V31.0598L65.1652 21.5364C60.646 18.9273 55 22.1896 55 27.404V46.4508Z" fill="#31D3B7"/>
<defs>
<linearGradient id="paint0_linear_2624_5342" x1="55" y1="0" x2="55" y2="110" gradientUnits="userSpaceOnUse">
<stop stop-color="#F5F5F5"/>
<stop offset="1" stop-color="#E9EAEB"/>
</linearGradient>
</defs>
</svg>
