<svg width="194" height="50" viewBox="0 0 194 50" fill="none" xmlns="http://www.w3.org/2000/svg">
<path d="M9.69165 42.4083L21.6861 49.3333C24.9722 51.2306 29.0778 48.8583 29.0778 45.0667V13.1889L17.0833 6.26389C13.7972 4.36667 9.69165 6.73889 9.69165 10.5306V42.4083Z" fill="#107569"/>
<path opacity="0.7" d="M0 29.9778L11.9944 36.9028C15.2806 38.8 19.3861 36.4278 19.3861 32.6361V18.7861L7.39167 11.8611C4.10556 9.96389 0 12.3361 0 16.1278L0 29.9778Z" fill="#109383"/>
<path opacity="0.7" d="M19.386 18.7833L31.3804 25.7083C34.6665 27.6056 38.7721 25.2333 38.7721 21.4417V7.59167L26.7777 0.666669C23.4915 -1.23055 19.386 1.14167 19.386 4.93334V18.7833Z" fill="#31D3B7"/>
<path d="M54.2334 12.1528V41.4056H48.0472V12.1528H54.2334Z" fill="#107569"/>
<path d="M62.0833 28.7194V41.4028H56V19.4639H61.8V23.3361H62.0556C62.55 22.0611 63.3667 21.05 64.5056 20.3C65.6444 19.5528 67.0278 19.1778 68.6556 19.1778C70.9417 19.1778 72.775 19.9139 74.1556 21.3833C75.5361 22.8556 76.225 24.8722 76.225 27.4333V41.4028H70.1417V28.5194C70.15 27.1778 69.8083 26.125 69.1139 25.3694C68.4167 24.6111 67.4611 24.2333 66.2417 24.2333C65.0222 24.2333 64.0167 24.6278 63.25 25.4111C62.4833 26.1944 62.0944 27.3 62.0861 28.7167L62.0833 28.7194Z" fill="#107569"/>
<path d="M96.8499 25.7222L91.2805 26.0639C91.1277 25.3583 90.7444 24.7556 90.1249 24.25C89.5055 23.7472 88.6666 23.4944 87.611 23.4944C86.6694 23.4944 85.8694 23.6917 85.2194 24.0861C84.5666 24.4806 84.2444 25.0083 84.2555 25.6639C84.2444 26.1861 84.4527 26.6306 84.8777 26.9917C85.3027 27.3528 86.0222 27.6444 87.0416 27.8639L91.0138 28.6639C95.2305 29.5333 97.3444 31.5111 97.3555 34.6056C97.3555 36.0444 96.9333 37.3056 96.0916 38.3917C95.2472 39.475 94.0944 40.3222 92.6277 40.9278C91.161 41.5333 89.4805 41.8361 87.586 41.8361C84.6805 41.8361 82.3666 41.2278 80.6444 40.0167C78.9222 38.8028 77.9166 37.1472 77.6305 35.0528L83.6166 34.7389C83.8055 35.6333 84.2472 36.3111 84.936 36.7694C85.6277 37.225 86.5138 37.4556 87.5999 37.4556C88.686 37.4556 89.5249 37.2472 90.1777 36.8278C90.8305 36.4083 91.161 35.875 91.1694 35.2278C91.1416 34.1444 90.2027 33.4139 88.3555 33.0417L84.5555 32.2833C80.3083 31.4361 78.1944 29.3472 78.2138 26.0139C78.2055 23.9 79.0499 22.2333 80.7499 21.0139C82.4499 19.7944 84.7055 19.1861 87.5138 19.1861C90.3222 19.1861 92.4666 19.7722 94.0638 20.9444C95.6583 22.1167 96.5888 23.7111 96.8555 25.7306L96.8499 25.7222Z" fill="#107569"/>
<path d="M112.85 32.0639V19.4667H118.933V41.4056H113.092V37.4222H112.861C112.367 38.7083 111.544 39.7417 110.397 40.5194C109.25 41.3 107.853 41.6917 106.205 41.6917C103.997 41.6917 102.208 40.9556 100.842 39.4861C99.4749 38.0167 98.7888 35.9972 98.7777 33.4361V19.4667H104.861V32.3528C104.872 33.6472 105.219 34.6722 105.905 35.4222C106.592 36.175 107.511 36.55 108.661 36.55C109.811 36.55 110.73 36.1694 111.583 35.4056C112.433 34.6444 112.855 33.5306 112.847 32.0639H112.85Z" fill="#107569"/>
<path d="M120.572 41.4056V19.4667H126.472V23.2944H126.7C127.1 21.9333 127.769 20.9028 128.706 20.2028C129.644 19.5028 130.731 19.1528 131.969 19.1528C132.561 19.1528 133.108 19.225 133.611 19.3667C134.117 19.5083 134.567 19.7028 134.969 19.95L133.142 24.9778C132.856 24.8361 132.544 24.7139 132.206 24.6139C131.867 24.5139 131.489 24.4639 131.069 24.4639C129.842 24.4639 128.8 24.8833 127.947 25.7222C127.094 26.5583 126.664 27.65 126.653 28.9917V41.4056H120.569H120.572Z" fill="#107569"/>
<path d="M135.939 12.1528H143.567L151.622 31.8083H151.964L160.019 12.1528H167.647V41.4056H161.647V22.3639H161.403L153.833 41.2611H149.75L142.18 22.2944H141.936V41.4056H135.936V12.1528H135.939Z" fill="#4BB8B2"/>
<path d="M179.453 41.4056H169.083V12.1528H179.539C182.481 12.1528 185.017 12.7361 187.144 13.9028C189.272 15.0694 190.908 16.7444 192.05 18.925C193.192 21.1028 193.764 23.7139 193.764 26.7528C193.764 29.7917 193.189 32.4167 192.042 34.6083C190.894 36.8 189.253 38.4778 187.114 39.65C184.975 40.8222 182.422 41.4083 179.45 41.4083L179.453 41.4056ZM175.267 36.1056H179.194C181.947 36.1056 184.033 35.3639 185.458 33.8778C186.881 32.3917 187.594 30.0167 187.594 26.75C187.594 23.4833 186.883 21.1417 185.458 19.6667C184.033 18.1917 181.953 17.4528 179.208 17.4528H175.267V36.1083V36.1056Z" fill="#4BB8B2"/>
</svg>
